# xmcd
#
# Track frame offsets:
#	150
#	17460
#	34313
#	52993
#	71029
#	85714
#	111268
#	127453
#	145249
#	177500
#	195303
#	211584
#	233246
#	247914
#
# Disc length: 3576 seconds
#
# Revision: 1
# Processed by: cddbd v1.5.1PL0 Copyright (c) Steve Scherf et al.
# Submitted via: audiograbber 1.83.01
#
DISCID=c00df60e
DTITLE=Compilation - Good Wiskey Blues
DYEAR=1900
DGENRE=Blues
TTITLE0=Dong Davis Band - Dawn, don´t bother me
TTITLE1=Michael Henderson and the Blue Boys - Ramblin´ on my Mind
TTITLE2=Tombstone Bullets feat. Jimmy Hall - Murdered by Love
TTITLE3=Beat Daddys - Livin´ thins Love
TTITLE4=Billy C. Farlow - A little Meat on Side
TTITLE5=Freddie and the Screamers - Full Moon on Main Street
TTITLE6=Hypnotics - Womenizer
TTITLE7=Zip Gibson - Smoking Hookah Blues
TTITLE8=Toler Brothers - Goin´ down slow
TTITLE9=Bleu Jackson - Lightning
TTITLE10=Bleu Jackson - You left your Mark on me
TTITLE11=Jim Liban - Skin Hunger
TTITLE12=Mojo Men - Midnight Drag
TTITLE13=Steddy Eddy - Blue Train
EXTD=
EXTT0=
EXTT1=
EXTT2=
EXTT3=
EXTT4=
EXTT5=
EXTT6=
EXTT7=
EXTT8=
EXTT9=
EXTT10=
EXTT11=
EXTT12=
EXTT13=
PLAYORDER=
